<svg id="vk" xmlns="http://www.w3.org/2000/svg" viewBox="0 0 960 960"><defs><style>.cls-1{fill:#4c75a3;}.cls-2{fill:#fff;}</style></defs><title>vkontakte</title><circle id="back" class="cls-1" cx="480" cy="480" r="480"/><path id="letter" class="cls-2" d="M505,716h39.27s11.86-1.31,17.92-7.83c5.57-6,5.4-17.25,5.4-17.25s-0.77-52.69,23.68-60.45c24.11-7.65,55.07,50.92,87.88,73.45,24.81,17,43.67,13.31,43.67,13.31L810.51,716s45.89-2.83,24.13-38.92c-1.78-2.95-12.68-26.69-65.24-75.48-55-51.06-47.64-42.8,18.63-131.13,40.36-53.79,56.49-86.63,51.45-100.69C834.67,356.41,805,360,805,360l-98.79.61s-7.33-1-12.76,2.25-8.72,10.6-8.72,10.6-15.64,41.62-36.49,77c-44,74.69-61.58,78.65-68.77,74-16.73-10.81-12.55-43.42-12.55-66.6,0-72.39,11-102.57-21.38-110.38-10.74-2.59-18.65-4.31-46.11-4.59-35.25-.36-65.08.11-82,8.38-11.24,5.5-19.91,17.77-14.63,18.47,6.53,0.87,21.31,4,29.15,14.66,10.13,13.78,9.77,44.7,9.77,44.7s5.82,85.21-13.58,95.79c-13.31,7.26-31.58-7.56-70.8-75.33-20.09-34.71-35.26-73.09-35.26-73.09s-2.92-7.17-8.14-11c-6.33-4.65-15.17-6.12-15.17-6.12l-93.88.61s-14.09.39-19.27,6.52c-4.61,5.46-.37,16.72-0.37,16.72S258.77,555.14,342,641.79C418.31,721.24,505,716,505,716" transform="translate(-32 -32)"/></svg>